<?xml version="1.0" standalone="no"?>
<!DOCTYPE svg PUBLIC "-//W3C//DTD SVG 20010904//EN"
 "http://www.w3.org/TR/2001/REC-SVG-20010904/DTD/svg10.dtd">
<svg version="1.0" xmlns="http://www.w3.org/2000/svg"
 width="324.000000pt" height="341.000000pt" viewBox="0 0 324.000000 341.000000"
 preserveAspectRatio="xMidYMid meet">

<g transform="translate(0.000000,341.000000) scale(0.100000,-0.100000)"
fill="#000000" stroke="none">
<path d="M1528 2376 c-54 -21 -91 -52 -123 -101 -26 -42 -31 -45 -144 -80 -64
-20 -160 -50 -214 -67 -55 -17 -101 -38 -104 -46 -4 -8 25 -45 76 -96 l82 -83
-50 -81 c-28 -45 -51 -88 -51 -96 0 -9 29 -24 80 -41 l80 -27 2 -205 3 -206
212 -80 212 -79 238 79 238 80 3 211 2 211 85 28 c57 18 85 32 85 42 0 9 -35
51 -77 93 l-78 78 79 79 c49 50 77 85 73 94 -3 8 -43 26 -89 40 -45 14 -129
40 -184 57 l-102 31 -33 57 c-47 78 -105 113 -196 118 -43 2 -82 -1 -105 -10z
m145 -37 c82 -22 147 -110 147 -198 0 -63 -13 -97 -53 -140 -81 -85 -199 -93
-283 -19 -124 109 -84 306 73 355 49 15 69 15 116 2z m-308 -218 c2 -27 9 -60
15 -72 7 -11 8 -25 3 -29 -12 -11 -232 -82 -242 -78 -16 6 -132 120 -127 125
7 8 340 112 344 108 2 -2 5 -26 7 -54z m673 -11 c72 -22 131 -44 131 -48 -1
-4 -30 -34 -65 -66 l-64 -60 -73 23 c-39 13 -87 29 -104 37 -32 12 -32 13 -18
41 8 15 18 49 21 76 5 37 10 47 23 43 9 -3 76 -23 149 -46z m-594 -157 c81
-68 192 -83 283 -38 28 15 56 32 63 40 9 11 24 9 88 -12 42 -14 80 -29 84 -32
4 -4 -78 -35 -182 -70 l-190 -62 -190 62 c-104 35 -187 66 -184 69 4 4 174 65
193 69 2 1 17 -11 35 -26z m-89 -143 c105 -34 192 -65 194 -67 5 -4 -11 -34
-55 -105 l-23 -37 -198 66 c-109 36 -202 69 -206 73 -8 7 3 28 60 118 8 13 20
22 26 19 7 -2 98 -32 202 -67z m754 6 c35 -35 59 -66 55 -69 -11 -6 -406 -130
-420 -131 -10 -1 -119 123 -112 128 5 5 392 134 403 135 6 1 39 -28 74 -63z
m-479 -143 c0 -5 22 -32 48 -61 l47 -52 140 45 c77 25 146 45 153 45 9 0 12
-43 12 -184 l0 -184 -198 -66 c-108 -36 -203 -66 -210 -66 -9 0 -12 60 -12
265 0 170 4 265 10 265 6 0 10 -3 10 -7z m-60 -268 c0 -197 -3 -255 -12 -255
-7 0 -89 29 -183 64 l-170 64 -3 181 c-1 100 1 181 6 181 4 0 68 -20 142 -45
74 -25 136 -45 137 -45 2 0 19 25 38 55 20 30 38 55 40 55 3 0 5 -115 5 -255z"/>
<path d="M1663 2168 c-69 -69 -73 -71 -91 -55 -22 20 -52 22 -52 4 0 -7 16
-28 35 -47 l35 -34 90 89 c69 68 87 92 78 102 -6 7 -13 13 -17 13 -3 0 -39
-32 -78 -72z"/>
<path d="M1315 1430 c-8 -13 3 -30 20 -30 14 0 27 24 18 34 -10 9 -31 7 -38
-4z"/>
<path d="M1417 1403 c-22 -21 23 -53 74 -53 32 0 21 30 -16 46 -38 16 -49 17
-58 7z"/>
<path d="M1314 1329 c-10 -17 16 -36 90 -63 81 -31 109 -33 104 -9 -2 11 -33
29 -87 50 -95 37 -97 37 -107 22z"/>
</g>
</svg>
